<svg xmlns="http://www.w3.org/2000/svg" viewBox="0 0 1200 760" width="1200" height="760" role="img"><title>ShipOpz / Six connected operations areas</title><defs><pattern id="paper" width="24" height="24" patternUnits="userSpaceOnUse"><path d="M0 24H24" stroke="#e7e2d8" stroke-width=".6"/></pattern></defs><rect width="1200" height="760" fill="#fbf9f2"/><rect width="1200" height="760" fill="url(#paper)"/><g fill="none" stroke="#77746e" stroke-width="2.2" stroke-linecap="round" stroke-linejoin="round"><path d="M37 71 L1165 70 L1164 680 L35 678 Z"/><path d="M39 74 L1161 72 L1162 677" opacity=".2"/><text x="60" y="46" fill="#5d5b55" stroke="none" font-family="Georgia,serif" font-style="italic" font-size="27">ShipOpz / Six connected operations areas</text><text x="60" y="107" fill="#5d5b55" stroke="none" font-family="Georgia,serif" font-style="italic" font-size="18">Public experience / layout study</text><path d="M720 102 Q920.0 104 1120 102" opacity=".5"/><text x="65" y="166" fill="#5d5b55" stroke="none" font-family="Georgia,serif" font-style="italic" font-size="32">The whole operation, in one place.</text><path d="M67 231 L405 230 L404 400 L65 398 Z"/><path d="M69 234 L401 232 L402 397" opacity=".2"/><text x="85" y="264" fill="#5d5b55" stroke="none" font-family="Georgia,serif" font-style="italic" font-size="22">Quotes and bookings</text><path d="M85 305 Q225.0 307 365 305" opacity=".5"/><path d="M85 323 Q225.0 325 335 323" opacity=".5"/><path d="M85 341 Q225.0 343 365 341" opacity=".5"/><path d="M85 359 Q225.0 361 335 359" opacity=".5"/><path d="M432 231 L770 230 L769 400 L430 398 Z"/><path d="M434 234 L766 232 L767 397" opacity=".2"/><text x="450" y="264" fill="#5d5b55" stroke="none" font-family="Georgia,serif" font-style="italic" font-size="22">Yard operations</text><path d="M450 305 Q590.0 307 730 305" opacity=".5"/><path d="M450 323 Q590.0 325 700 323" opacity=".5"/><path d="M450 341 Q590.0 343 730 341" opacity=".5"/><path d="M450 359 Q590.0 361 700 359" opacity=".5"/><path d="M797 231 L1135 230 L1134 400 L795 398 Z"/><path d="M799 234 L1131 232 L1132 397" opacity=".2"/><text x="815" y="264" fill="#5d5b55" stroke="none" font-family="Georgia,serif" font-style="italic" font-size="22">House B/Ls and invoicing</text><path d="M815 305 Q955.0 307 1095 305" opacity=".5"/><path d="M815 323 Q955.0 325 1065 323" opacity=".5"/><path d="M815 341 Q955.0 343 1095 341" opacity=".5"/><path d="M815 359 Q955.0 361 1065 359" opacity=".5"/><path d="M67 426 L405 425 L404 595 L65 593 Z"/><path d="M69 429 L401 427 L402 592" opacity=".2"/><text x="85" y="459" fill="#5d5b55" stroke="none" font-family="Georgia,serif" font-style="italic" font-size="22">Payments and receipts</text><path d="M85 500 Q225.0 502 365 500" opacity=".5"/><path d="M85 518 Q225.0 520 335 518" opacity=".5"/><path d="M85 536 Q225.0 538 365 536" opacity=".5"/><path d="M85 554 Q225.0 556 335 554" opacity=".5"/><path d="M432 426 L770 425 L769 595 L430 593 Z"/><path d="M434 429 L766 427 L767 592" opacity=".2"/><text x="450" y="459" fill="#5d5b55" stroke="none" font-family="Georgia,serif" font-style="italic" font-size="22">Destination agents</text><path d="M450 500 Q590.0 502 730 500" opacity=".5"/><path d="M450 518 Q590.0 520 700 518" opacity=".5"/><path d="M450 536 Q590.0 538 730 536" opacity=".5"/><path d="M450 554 Q590.0 556 700 554" opacity=".5"/><path d="M797 426 L1135 425 L1134 595 L795 593 Z"/><path d="M799 429 L1131 427 L1132 592" opacity=".2"/><text x="815" y="459" fill="#5d5b55" stroke="none" font-family="Georgia,serif" font-style="italic" font-size="22">Incidents and updates</text><path d="M815 500 Q955.0 502 1095 500" opacity=".5"/><path d="M815 518 Q955.0 520 1065 518" opacity=".5"/><path d="M815 536 Q955.0 538 1095 536" opacity=".5"/><path d="M815 554 Q955.0 556 1065 554" opacity=".5"/><text x="60" y="723" fill="#5d5b55" stroke="none" font-family="Georgia,serif" font-style="italic" font-size="18">Retrospective sketch • Simplified from the public screen shown in this chapter</text></g></svg>